<svg width="200" height="200" viewBox="0 0 200 200" xmlns="http://www.w3.org/2000/svg">
  <defs>
    <pattern id="paw-pattern" x="0" y="0" width="100" height="100" patternUnits="userSpaceOnUse">
      <!-- First paw -->
      <g fill="#5A6B46" opacity="0.7">
        <!-- Main pad -->
        <ellipse cx="25" cy="30" rx="12" ry="10" />
        <!-- Toe pads -->
        <ellipse cx="15" cy="18" rx="7" ry="6" />
        <ellipse cx="25" cy="15" rx="7" ry="6" />
        <ellipse cx="35" cy="18" rx="7" ry="6" />
        <ellipse cx="30" cy="45" rx="5" ry="8" transform="rotate(-15 30 45)" />
      </g>
      
      <!-- Second paw - rotated -->
      <g fill="#5A6B46" opacity="0.5" transform="translate(75, 65) rotate(45)">
        <!-- Main pad -->
        <ellipse cx="25" cy="30" rx="12" ry="10" />
        <!-- Toe pads -->
        <ellipse cx="15" cy="18" rx="7" ry="6" />
        <ellipse cx="25" cy="15" rx="7" ry="6" />
        <ellipse cx="35" cy="18" rx="7" ry="6" />
        <ellipse cx="30" cy="45" rx="5" ry="8" transform="rotate(-15 30 45)" />
      </g>
      
      <!-- Third paw - different rotation -->
      <g fill="#5A6B46" opacity="0.6" transform="translate(25, 75) rotate(-30)">
        <!-- Main pad -->
        <ellipse cx="25" cy="30" rx="12" ry="10" />
        <!-- Toe pads -->
        <ellipse cx="15" cy="18" rx="7" ry="6" />
        <ellipse cx="25" cy="15" rx="7" ry="6" />
        <ellipse cx="35" cy="18" rx="7" ry="6" />
        <ellipse cx="30" cy="45" rx="5" ry="8" transform="rotate(-15 30 45)" />
      </g>
    </pattern>
  </defs>
  
  <rect x="0" y="0" width="200" height="200" fill="url(#paw-pattern)" />
</svg> 