<svg xmlns="http://www.w3.org/2000/svg" xmlns:xlink="http://www.w3.org/1999/xlink" viewBox="0 0 500 500"><defs><clipPath id="freepik--clip-path--inject-99"><path d="M298.07,217.07c7.19-12,9.79-26.83,6-40.28-3.93-14.08-15.16-26.18-29.25-30.08-16-4.42-33.08,1.67-47.37,10.1S200.27,176.13,185,182.69c-4.39,1.88-9.51,3.37-13.8,1.31-13.82-6.64,7.28-18.59,12-21.47A238.54,238.54,0,0,1,220.28,144c18.47-7.3,38.42-12.32,58.1-9.73s39,13.93,47.11,32.07c6.49,14.6,5.08,31.39,2.63,47.18-.78,5.06-1.8,10.4-5.26,14.17-5.15,5.61-13.91,5.86-21.42,4.51-2.78-.49-5.89-1.44-7.08-4-1.44-3.13.79-6.6,2.66-9.49Q297.56,217.93,298.07,217.07Z" style="fill:#FF725E;stroke:#263238;stroke-miterlimit:10;stroke-width:1.5px"></path></clipPath><clipPath id="freepik--clip-path-3--inject-99"><path d="M327.67,317.8s3.39,16.64,8.62,25.58,15.72,8.32,17.26,1.23-5.54-16-7.39-22.8-1.54-18.8-1.54-18.8S327.05,301.47,327.67,317.8Z" style="fill:#FF725E;stroke:#263238;stroke-miterlimit:10;stroke-width:1.5px"></path></clipPath><clipPath id="freepik--clip-path-4--inject-99"><path d="M209.93,281.13s-13.25,6.16-15.72,12.94a92.1,92.1,0,0,0-3.69,14.18s-16.65,7.7-29.28,12-25.58,5.85-33,11.09-7.71,11.1-3.39,15.41,12.94,2.78,15.72,1.23,9.24-7.7,17.87-9.24,34.52,3.7,49.62.61,28-8,31.44-8,17,1.85,25.89-4,3.08-33-3.7-46.23S219.18,276.5,209.93,281.13Z" style="fill:#FF725E;stroke:#263238;stroke-miterlimit:10;stroke-width:1.5px"></path></clipPath><clipPath id="freepik--clip-path-5--inject-99"><path d="M230.89,308.55c14.18,15.41,24.66,22.2,39.14,24s33.29,0,47.77-6.16,17.88-10.17,17.88-10.17a85.17,85.17,0,0,0,9.86-5.86c7.09-4.62,20-18.18,23.42-35.75,2.92-15.13.52-31.9-7.25-45.28-9-15.56-25.56-23.53-43.28-23.84-10.77-.18-20.75,3.69-29.6,9.64-16.95,11.4-21,21.27-21,21.27H250.31s-8.63-3.39-24.35,12.63" style="fill:#FF725E;stroke:#263238;stroke-miterlimit:10;stroke-width:1.5px"></path></clipPath><clipPath id="freepik--clip-path-6--inject-99"><path d="M259.85,258.86s-5.76,14.58-14.57,19.33a39.52,39.52,0,0,1-17,4.75s-6.1,5.76-17.29,6.44-18-9.5-18-12.89v-9.15s-7.12-8.82-6.78-13.56.68-26.11,12.89-34.58,24.07-7.46,33.56-5.43,20,13.56,23.39,20.34,3.4,15.26,3.4,15.26" style="fill:#FF725E;stroke:#263238;stroke-miterlimit:10;stroke-width:1.5px"></path></clipPath><clipPath id="freepik--clip-path-7--inject-99"><path d="M281.13,280.2s10.48.31,23.73,7.4,26.5,10.48,26.5,18.18-27.43,23.73-40.68,33.59-23.73,19.42-33,21.89-21.26,2.77-22.8-3.39,6.47-7.71,11.09-8.32,12.33-2.47,12.33-2.47L274,332s-17.88-1.23-26.2-15.72" style="fill:#FF725E;stroke:#263238;stroke-miterlimit:10;stroke-width:1.5px"></path></clipPath></defs><g id="freepik--background-simple--inject-99"><path d="M434,190.62a104.57,104.57,0,0,0-9.84-19.1C406.78,145,374.56,127.45,347,114c-84-41-154,4-193,50S69,234,64,284,88,389,168,398s143-52,197-45C447.52,363.69,455,243.89,434,190.62Z" style="fill:#FF725E"></path><path d="M434,190.62a104.57,104.57,0,0,0-9.84-19.1C406.78,145,374.56,127.45,347,114c-84-41-154,4-193,50S69,234,64,284,88,389,168,398s143-52,197-45C447.52,363.69,455,243.89,434,190.62Z" style="fill:#fff;opacity:0.7000000000000001"></path></g><g id="freepik--Plants--inject-99"><path d="M241.86,205.55C232.3,199,218,197.87,218,197.87c21-3.29,41.14,3.3,41.14,3.3s-13.4-9.88-23-9.88-24.87-1.1-24.87-1.1C217,183.61,238,175.93,238,175.93s-15.31,0-22,1.1-8.61,8.77-8.61,8.77-1.91-4.39-16.26-7.68S173,185.8,173,185.8h13.39c4.79,0,11.48,6.59,11.48,6.59s-15.3,0-21,3.29c-4.94,2.83-11.28,14.58-13,17.81a376.12,376.12,0,0,1,16.72-59.42l.38-.29C190.38,147,194.42,143,194.42,143l16.19,27L209.26,147s13.48,4.05,17.53,8.09S243,172.66,243,172.66s-5.4-20.22-12.14-27S212,130.86,212,130.86s14.84,0,20.23,2.7S253.76,147,253.76,147,243,128.16,234.88,124.12s-29.67-4.05-29.67-4.05,9.44-8.09,16.18-8.09h18.88s-5.39-13.48-25.62-9.44S191.73,112,191.73,112s-2.7-9.44-12.14-10.78-31-1.35-31-1.35,29.66,9.44,37.75,17.53c0,0-21.57,1.35-35.06,1.35s-32.36,12.13-32.36,12.13,28.32-8.09,58-4c0,0-20.22,1.34-33.71,9.44s-27,27-27,27,12.14-12.13,28.32-16.18,39.11-9.44,39.11-9.44S160.71,156.48,158,165.92s-10.79,25.62-10.79,25.62,19.33-24.7,30.2-34.8c-9,24.8-20.35,64.75-21.75,110.89-4-16.36-15.66-50.22-46.17-67.19,5.78,1.58,14.11,3.88,20.83,5.8,11.48,3.29,20.09,13.17,20.09,13.17s-9.57-15.36-19.14-21.95-23.92-7.68-23.92-7.68c21-3.29,41.14,3.29,41.14,3.29s-13.39-9.87-23-9.87-24.87-1.1-24.87-1.1c5.74-6.58,26.79-14.26,26.79-14.26s-15.31,0-22,1.09-8.61,8.78-8.61,8.78-1.91-4.39-16.27-7.68-18.17,7.68-18.17,7.68H75.8c4.78,0,11.48,6.59,11.48,6.59s-15.31,0-21,3.29-13.39,18.65-13.39,18.65,11.48-8.78,15.31-11,14.35-2.2,14.35-2.2-8.61,6.59-13.4,12.07-8.61,22-8.61,22,8.61-11,11.48-14.26,12.44-6.59,12.44-6.59l-1,18.66,11.49-22a87.66,87.66,0,0,0,9.56,8.78c6.7,5.48,23.92,30.72,23.92,30.72s-5.74-13.17-7.65-20.85c-1.58-6.32-12.87-17.84-16.81-21.71,39,18.3,49.32,64.36,51.2,75H139l3.56,31.33H171l3.55-31.33H157.85c1-6.38,4.58-25.43,14-42.73-.49,1.82-.77,3-.77,3s8.61-11,11.49-14.26S195,214.33,195,214.33L194,233l11.48-22a87.33,87.33,0,0,0,9.57,8.78c6.69,5.49,23.91,30.72,23.91,30.72s-5.74-13.17-7.65-20.85-18.18-23-18.18-23,16.27,4.39,27.75,7.68S261,227.5,261,227.5,251.43,212.14,241.86,205.55ZM157.79,264.7a340.78,340.78,0,0,1,5.94-50.61c1.81-1.38,11.52-8.74,15-10.73,3.83-2.19,14.35-2.19,14.35-2.19s-8.61,6.58-13.4,12.07c-2.06,2.37-3.95,6.79-5.43,11C165.18,237.92,160.27,254,157.79,264.7Z" style="fill:#FF725E"></path><path d="M241.86,205.55C232.3,199,218,197.87,218,197.87c21-3.29,41.14,3.3,41.14,3.3s-13.4-9.88-23-9.88-24.87-1.1-24.87-1.1C217,183.61,238,175.93,238,175.93s-15.31,0-22,1.1-8.61,8.77-8.61,8.77-1.91-4.39-16.26-7.68S173,185.8,173,185.8h13.39c4.79,0,11.48,6.59,11.48,6.59s-15.3,0-21,3.29c-4.94,2.83-11.28,14.58-13,17.81a376.12,376.12,0,0,1,16.72-59.42l.38-.29C190.38,147,194.42,143,194.42,143l16.19,27L209.26,147s13.48,4.05,17.53,8.09S243,172.66,243,172.66s-5.4-20.22-12.14-27S212,130.86,212,130.86s14.84,0,20.23,2.7S253.76,147,253.76,147,243,128.16,234.88,124.12s-29.67-4.05-29.67-4.05,9.44-8.09,16.18-8.09h18.88s-5.39-13.48-25.62-9.44S191.73,112,191.73,112s-2.7-9.44-12.14-10.78-31-1.35-31-1.35,29.66,9.44,37.75,17.53c0,0-21.57,1.35-35.06,1.35s-32.36,12.13-32.36,12.13,28.32-8.09,58-4c0,0-20.22,1.34-33.71,9.44s-27,27-27,27,12.14-12.13,28.32-16.18,39.11-9.44,39.11-9.44S160.71,156.48,158,165.92s-10.79,25.62-10.79,25.62,19.33-24.7,30.2-34.8c-9,24.8-20.35,64.75-21.75,110.89-4-16.36-15.66-50.22-46.17-67.19,5.78,1.58,14.11,3.88,20.83,5.8,11.48,3.29,20.09,13.17,20.09,13.17s-9.57-15.36-19.14-21.95-23.92-7.68-23.92-7.68c21-3.29,41.14,3.29,41.14,3.29s-13.39-9.87-23-9.87-24.87-1.1-24.87-1.1c5.74-6.58,26.79-14.26,26.79-14.26s-15.31,0-22,1.09-8.61,8.78-8.61,8.78-1.91-4.39-16.27-7.68-18.17,7.68-18.17,7.68H75.8c4.78,0,11.48,6.59,11.48,6.59s-15.31,0-21,3.29-13.39,18.65-13.39,18.65,11.48-8.78,15.31-11,14.35-2.2,14.35-2.2-8.61,6.59-13.4,12.07-8.61,22-8.61,22,8.61-11,11.48-14.26,12.44-6.59,12.44-6.59l-1,18.66,11.49-22a87.66,87.66,0,0,0,9.56,8.78c6.7,5.48,23.92,30.72,23.92,30.72s-5.74-13.17-7.65-20.85c-1.58-6.32-12.87-17.84-16.81-21.71,39,18.3,49.32,64.36,51.2,75H139l3.56,31.33H171l3.55-31.33H157.85c1-6.38,4.58-25.43,14-42.73-.49,1.82-.77,3-.77,3s8.61-11,11.49-14.26S195,214.33,195,214.33L194,233l11.48-22a87.33,87.33,0,0,0,9.57,8.78c6.69,5.49,23.91,30.72,23.91,30.72s-5.74-13.17-7.65-20.85-18.18-23-18.18-23,16.27,4.39,27.75,7.68S261,227.5,261,227.5,251.43,212.14,241.86,205.55ZM157.79,264.7a340.78,340.78,0,0,1,5.94-50.61c1.81-1.38,11.52-8.74,15-10.73,3.83-2.19,14.35-2.19,14.35-2.19s-8.61,6.58-13.4,12.07c-2.06,2.37-3.95,6.79-5.43,11C165.18,237.92,160.27,254,157.79,264.7Z" style="fill:#fff;opacity:0.5"></path></g><g id="freepik--Cat--inject-99"><path d="M298.07,217.07c7.19-12,9.79-26.83,6-40.28-3.93-14.08-15.16-26.18-29.25-30.08-16-4.42-33.08,1.67-47.37,10.1S200.27,176.13,185,182.69c-4.39,1.88-9.51,3.37-13.8,1.31-13.82-6.64,7.28-18.59,12-21.47A238.54,238.54,0,0,1,220.28,144c18.47-7.3,38.42-12.32,58.1-9.73s39,13.93,47.11,32.07c6.49,14.6,5.08,31.39,2.63,47.18-.78,5.06-1.8,10.4-5.26,14.17-5.15,5.61-13.91,5.86-21.42,4.51-2.78-.49-5.89-1.44-7.08-4-1.44-3.13.79-6.6,2.66-9.49Q297.56,217.93,298.07,217.07Z" style="fill:#FF725E"></path><g style="clip-path:url(#freepik--clip-path--inject-99)"><path d="M192.89,156.92c-3.26,1.8-6.49,3.66-9.67,5.61-4.71,2.88-25.81,14.83-12,21.47,4.29,2.06,9.41.57,13.8-1.31a126.31,126.31,0,0,0,18.8-10.41C201.89,163.36,197.5,159,192.89,156.92Z" style="fill:#fff"></path></g><path d="M298.07,217.07c7.19-12,9.79-26.83,6-40.28-3.93-14.08-15.16-26.18-29.25-30.08-16-4.42-33.08,1.67-47.37,10.1S200.27,176.13,185,182.69c-4.39,1.88-9.51,3.37-13.8,1.31-13.82-6.64,7.28-18.59,12-21.47A238.54,238.54,0,0,1,220.28,144c18.47-7.3,38.42-12.32,58.1-9.73s39,13.93,47.11,32.07c6.49,14.6,5.08,31.39,2.63,47.18-.78,5.06-1.8,10.4-5.26,14.17-5.15,5.61-13.91,5.86-21.42,4.51-2.78-.49-5.89-1.44-7.08-4-1.44-3.13.79-6.6,2.66-9.49Q297.56,217.93,298.07,217.07Z" style="fill:none;stroke:#263238;stroke-miterlimit:10;stroke-width:1.5px"></path><path d="M298.07,217.07c7.19-12,9.79-26.83,6-40.28-3.93-14.08-15.16-26.18-29.25-30.08-16-4.42-33.08,1.67-47.37,10.1S200.27,176.13,185,182.69c-4.39,1.88-9.51,3.37-13.8,1.31-13.82-6.64,7.28-18.59,12-21.47A238.54,238.54,0,0,1,220.28,144c18.47-7.3,38.42-12.32,58.1-9.73s39,13.93,47.11,32.07c6.49,14.6,5.08,31.39,2.63,47.18-.78,5.06-1.8,10.4-5.26,14.17-5.15,5.61-13.91,5.86-21.42,4.51-2.78-.49-5.89-1.44-7.08-4-1.44-3.13.79-6.6,2.66-9.49Q297.56,217.93,298.07,217.07Z" style="fill:#FF725E"></path><g style="clip-path:url(#freepik--clip-path--inject-99)"><path d="M293.88,147.26c-3.06,5.94,0,7.43,0,7.43s-.3-2.47,1.59-6.86a10.07,10.07,0,0,1,5.21-5.56S296.94,141.31,293.88,147.26Z" style="fill:#263238"></path><path d="M277.37,140.29c-2.12,5.25.39,6.74.39,6.74a14.55,14.55,0,0,1,.93-6.14c1.27-3.89,3.83-4.79,3.83-4.79S279.5,135,277.37,140.29Z" style="fill:#263238"></path><path d="M258.24,138.14c-2.12,5.25.39,6.74.39,6.74a14.41,14.41,0,0,1,.92-6.14c1.28-3.89,3.83-4.79,3.83-4.79S260.36,132.89,258.24,138.14Z" style="fill:#263238"></path><path d="M314.75,154.31s-2.75-3.4-9.59-.48-5.07,6.31-5.07,6.31,1.43-2.29,6.15-4.7A11.67,11.67,0,0,1,314.75,154.31Z" style="fill:#263238"></path><path d="M311.55,166.59a11.72,11.72,0,0,1,8.41-1.73s-3-3.2-9.61.21-4.6,6.65-4.6,6.65S307,169.33,311.55,166.59Z" style="fill:#263238"></path><path d="M315,178c-9,2.2-7.8,6.8-7.8,6.8s2.34-2.56,8.64-4.57,10.46.41,10.46.41S324,175.83,315,178Z" style="fill:#263238"></path><path d="M314.86,198.76c-9.06,1.82-8.08,6.47-8.08,6.47s2.45-2.46,8.83-4.21,10.43.84,10.43.84S323.92,196.93,314.86,198.76Z" style="fill:#263238"></path><path d="M192.89,156.92c-3.26,1.8-6.49,3.66-9.67,5.61-4.71,2.88-25.81,14.83-12,21.47,4.29,2.06,9.41.57,13.8-1.31a126.31,126.31,0,0,0,18.8-10.41C201.89,163.36,197.5,159,192.89,156.92Z" style="fill:#fff"></path></g><path d="M298.07,217.07c7.19-12,9.79-26.83,6-40.28-3.93-14.08-15.16-26.18-29.25-30.08-16-4.42-33.08,1.67-47.37,10.1S200.27,176.13,185,182.69c-4.39,1.88-9.51,3.37-13.8,1.31-13.82-6.64,7.28-18.59,12-21.47A238.54,238.54,0,0,1,220.28,144c18.47-7.3,38.42-12.32,58.1-9.73s39,13.93,47.11,32.07c6.49,14.6,5.08,31.39,2.63,47.18-.78,5.06-1.8,10.4-5.26,14.17-5.15,5.61-13.91,5.86-21.42,4.51-2.78-.49-5.89-1.44-7.08-4-1.44-3.13.79-6.6,2.66-9.49Q297.56,217.93,298.07,217.07Z" style="fill:none;stroke:#263238;stroke-miterlimit:10;stroke-width:1.5px"></path><path d="M282,339.57s42.15,3.73,33.08,7.47-16,2.13-52.29,6.93-88.57,4.81-112.58,4.81-30.41,4.27-16.54,4.27,42.15,0,97.11,2.13,120,14.94,153.12,1.6,1.07-25.08,1.07-25.08,12.81-2.66,2.14-6.93-51.76-8.54-71-11.21-29.87,3.2-16.54,3.2,76.3,6.41,68.3,11.74-46.95-.53-59.76-3.2S278.77,335.3,282,339.57Z" style="fill:#263238"></path><path d="M327.67,317.8s3.39,16.64,8.62,25.58,15.72,8.32,17.26,1.23-5.54-16-7.39-22.8-1.54-18.8-1.54-18.8S327.05,301.47,327.67,317.8Z" style="fill:#FF725E"></path><g style="clip-path:url(#freepik--clip-path-3--inject-99)"><path d="M333.35,337.19a47.58,47.58,0,0,0,2.94,6.19c5.24,8.94,15.72,8.32,17.26,1.23,1.15-5.25-2.45-11.52-5.14-17.17A18.8,18.8,0,0,0,333.35,337.19Z" style="fill:#fff"></path></g><path d="M327.67,317.8s3.39,16.64,8.62,25.58,15.72,8.32,17.26,1.23-5.54-16-7.39-22.8-1.54-18.8-1.54-18.8S327.05,301.47,327.67,317.8Z" style="fill:none;stroke:#263238;stroke-miterlimit:10;stroke-width:1.5px"></path><path d="M342.46,338.45s4.31,5.55,3.08,11.1" style="fill:none;stroke:#263238;stroke-linecap:round;stroke-miterlimit:10;stroke-width:1.5px"></path><path d="M347.7,336.29a9.08,9.08,0,0,1,4,11.1" style="fill:none;stroke:#263238;stroke-linecap:round;stroke-miterlimit:10;stroke-width:1.5px"></path><path d="M317.8,326.43s-8.93,9.25-18.49,12-19.11,2.16-17.87-2.16,5.54-5.85,11.09-5.85,17-11.41,17-11.41S321.81,311.33,317.8,326.43Z" style="fill:#FF725E;stroke:#263238;stroke-miterlimit:10;stroke-width:1.5px"></path><path d="M209.93,281.13s-13.25,6.16-15.72,12.94a92.1,92.1,0,0,0-3.69,14.18s-16.65,7.7-29.28,12-25.58,5.85-33,11.09-7.71,11.1-3.39,15.41,12.94,2.78,15.72,1.23,9.24-7.7,17.87-9.24,34.52,3.7,49.62.61,28-8,31.44-8,17,1.85,25.89-4,3.08-33-3.7-46.23S219.18,276.5,209.93,281.13Z" style="fill:#FF725E"></path><g style="clip-path:url(#freepik--clip-path-4--inject-99)"><path d="M241.36,305.53c-5.35-8.86-9.74-25.5-18.25-28.76a69,69,0,0,0-13.18,4.36s-1.38.64-3.34,1.74c-3.15,3.61-3,7.53.15,10,5.2,4,23.66,25.39,18.47,23.65a10.58,10.58,0,0,1-2.42-1.25c-5.58-3.65-14.19-13.07-20.66-16.05-7.5-3.47,6.92,15.57,6.92,21.34s-5.77.58-11-5.77-6.35-.57-3.46,5.77-1.16,9.23-13.27,9.23-26.54.58-26.54.58a13.08,13.08,0,0,0-3.63-7.1c-9.09,2.42-17.5,4.28-22.93,8.12-7.4,5.24-7.71,11.1-3.39,15.41s12.94,2.78,15.72,1.23,9.24-7.7,17.87-9.24,34.52,3.7,49.62.61,28-8,31.44-8c3.16,0,15.14,1.6,24-2.91C259.93,325.56,246.92,314.74,241.36,305.53Z" style="fill:#fff"></path></g><path d="M209.93,281.13s-13.25,6.16-15.72,12.94a92.1,92.1,0,0,0-3.69,14.18s-16.65,7.7-29.28,12-25.58,5.85-33,11.09-7.71,11.1-3.39,15.41,12.94,2.78,15.72,1.23,9.24-7.7,17.87-9.24,34.52,3.7,49.62.61,28-8,31.44-8,17,1.85,25.89-4,3.08-33-3.7-46.23S219.18,276.5,209.93,281.13Z" style="fill:none;stroke:#263238;stroke-miterlimit:10;stroke-width:1.5px"></path><circle cx="128.26" cy="339.37" r="2.47" style="fill:#263238"></circle><circle cx="138.43" cy="338.14" r="4.62" style="fill:#263238"></circle><circle cx="132.27" cy="344.92" r="2.47" style="fill:#263238"></circle><circle cx="138.43" cy="344.92" r="2.47" style="fill:#263238"></circle><path d="M230.89,308.55c14.18,15.41,24.66,22.2,39.14,24s33.29,0,47.77-6.16,17.88-10.17,17.88-10.17a85.17,85.17,0,0,0,9.86-5.86c7.09-4.62,20-18.18,23.42-35.75,2.92-15.13.52-31.9-7.25-45.28-9-15.56-25.56-23.53-43.28-23.84-10.77-.18-20.75,3.69-29.6,9.64-16.95,11.4-21,21.27-21,21.27H250.31s-8.63-3.39-24.35,12.63" style="fill:#FF725E"></path><g style="clip-path:url(#freepik--clip-path-5--inject-99)"><path d="M357.33,279c-1.15-11-6.92,1.16-8.65,5.19-3.41,8-1.73-19-6.93-25.38s1.16,15.58-.57,23.08-.58-5.2-4.62-12.7,1.73,9.81-6.92,19.62-24.24.58-24.24.58c7.24,20.49-12.12,36.22-24.53,43.89,12.26.06,25.86-2.13,36.93-6.84,14.49-6.16,17.88-10.17,17.88-10.17a85.17,85.17,0,0,0,9.86-5.86A41.51,41.51,0,0,0,351,306C355.82,296.35,358.14,286.68,357.33,279Z" style="fill:#fff"></path></g><path d="M230.89,308.55c14.18,15.41,24.66,22.2,39.14,24s33.29,0,47.77-6.16,17.88-10.17,17.88-10.17a85.17,85.17,0,0,0,9.86-5.86c7.09-4.62,20-18.18,23.42-35.75,2.92-15.13.52-31.9-7.25-45.28-9-15.56-25.56-23.53-43.28-23.84-10.77-.18-20.75,3.69-29.6,9.64-16.95,11.4-21,21.27-21,21.27H250.31s-8.63-3.39-24.35,12.63" style="fill:none;stroke:#263238;stroke-miterlimit:10;stroke-width:1.5px"></path><path d="M214.86,287.6s10.48,16,28,20,21.88-20.34,20.34-33-7.09-12.33-9.24-9.55-12.33,11.09-22.5,13.25S213.32,282.05,214.86,287.6Z" style="fill:#fff"></path><path d="M201.2,219.2a51.83,51.83,0,0,0-10.17-.68c-4.07.34-12.21,4.07-15.94,4.74s-2,2,2.72,7.46,15.93,8.82,15.93,8.82Z" style="fill:#FF725E;stroke:#263238;stroke-miterlimit:10;stroke-width:1.5px"></path><path d="M259.85,258.86s-5.76,14.58-14.57,19.33a39.52,39.52,0,0,1-17,4.75s-6.1,5.76-17.29,6.44-18-9.5-18-12.89v-9.15s-7.12-8.82-6.78-13.56.68-26.11,12.89-34.58,24.07-7.46,33.56-5.43,20,13.56,23.39,20.34,3.4,15.26,3.4,15.26" style="fill:#FF725E"></path><g style="clip-path:url(#freepik--clip-path-6--inject-99)"><path d="M211.94,273.8l-5.2-8.66s-1.15-10.38-6.92-16.15S198,267,198,267a16.78,16.78,0,0,0-4.9,1.92v7.56c0,3.39,6.78,13.57,18,12.89a32.15,32.15,0,0,0,11.88-3C221.1,277.51,211.94,273.8,211.94,273.8Z" style="fill:#fff"></path><path d="M210.32,270s3.41-6.82,12.36-1.71" style="fill:none;stroke:#263238;stroke-linecap:round;stroke-miterlimit:10;stroke-width:2px"></path><path d="M191.57,261.05s3.41-2.14,4.26,3.83" style="fill:none;stroke:#263238;stroke-linecap:round;stroke-miterlimit:10;stroke-width:2px"></path><path d="M200.94,283.64s2.13,3.83,5.55,5.11" style="fill:none;stroke:#263238;stroke-linecap:round;stroke-miterlimit:10"></path><path d="M214.24,247.84s2.31,8.07,13.85,9.8,15.44-2.87,11.76-6.91S216.55,247.84,214.24,247.84Z" style="fill:#263238"></path><path d="M239.85,250.73s-9.49,2.71-16.95,2.71S212.05,247,210.35,245s6.78-9.49,17-7.46S239.85,250.73,239.85,250.73Z" style="fill:#FF725E;stroke:#263238;stroke-miterlimit:10;stroke-width:1.5px"></path><path d="M204,283.47c.84-.73,1-1.94-.61-2.47-2.13-.7-5.58-1.56-4.86.58a3.88,3.88,0,0,0,4,2.49A2.5,2.5,0,0,0,204,283.47Z" style="fill:#263238"></path><path d="M250,269.18s-2.31,1.73-9.24,1.73-12.11-.57-12.11-.57,8.65,2.88,13.27,3.46S250,269.18,250,269.18Z" style="fill:#263238"></path><path d="M243.09,277.26s-4,3.46-8.65,1.73-10.39-4.61-10.39-4.61S238.48,278.42,243.09,277.26Z" style="fill:#263238"></path><path d="M216,225.33s-9.8,4-11,15,0,17.3,0,17.3S207.32,235.72,216,225.33Z" style="fill:#263238"></path><path d="M200.4,227.07s-5.82,2.44-6.66,12.47-.84,17-.84,17S195.78,235.14,200.4,227.07Z" style="fill:#263238"></path></g><path d="M259.85,258.86s-5.76,14.58-14.57,19.33a39.52,39.52,0,0,1-17,4.75s-6.1,5.76-17.29,6.44-18-9.5-18-12.89v-9.15s-7.12-8.82-6.78-13.56.68-26.11,12.89-34.58,24.07-7.46,33.56-5.43,20,13.56,23.39,20.34,3.4,15.26,3.4,15.26" style="fill:none;stroke:#263238;stroke-miterlimit:10;stroke-width:1.5px"></path><path d="M193.06,276.49s-15.18-4.3-24.12-4.61" style="fill:none;stroke:#263238;stroke-linecap:round;stroke-miterlimit:10;stroke-width:0.5px"></path><path d="M193.29,279s-21-1.85-30.82,0" style="fill:none;stroke:#263238;stroke-linecap:round;stroke-miterlimit:10;stroke-width:0.5px"></path><path d="M194.83,281.13s-25,1.23-32.36,3.69" style="fill:none;stroke:#263238;stroke-linecap:round;stroke-miterlimit:10;stroke-width:0.5px"></path><path d="M214.86,286.36s1.85,14.18,2.78,24" style="fill:none;stroke:#263238;stroke-linecap:round;stroke-miterlimit:10;stroke-width:0.5px"></path><path d="M216.4,283.59s10.18,15.72,10.18,23.42" style="fill:none;stroke:#263238;stroke-linecap:round;stroke-miterlimit:10;stroke-width:0.5px"></path><path d="M220.1,282.67s12,10.17,14.49,19.41" style="fill:none;stroke:#263238;stroke-linecap:round;stroke-miterlimit:10;stroke-width:0.5px"></path><path d="M335.68,316.26s16.95-13.87,14.48-44.69" style="fill:none;stroke:#263238;stroke-linecap:round;stroke-miterlimit:10;stroke-width:1.5px"></path><path d="M281.13,280.2s10.48.31,23.73,7.4,26.5,10.48,26.5,18.18-27.43,23.73-40.68,33.59-23.73,19.42-33,21.89-21.26,2.77-22.8-3.39,6.47-7.71,11.09-8.32,12.33-2.47,12.33-2.47L274,332s-17.88-1.23-26.2-15.72" style="fill:#FF725E"></path><g style="clip-path:url(#freepik--clip-path-7--inject-99)"><path d="M256.94,325.15s10.38-1.15,16.15-10.39,7.5-20.77,7.5-20.77,0,13.27-4,21.93S256.94,325.15,256.94,325.15Z" style="fill:#263238"></path><path d="M289.25,288.8s5.77,11.54.58,20.77a35.09,35.09,0,0,1-13.27,13.27S291.56,309,289.25,288.8Z" style="fill:#263238"></path><path d="M271.94,340.15l8.65,5.77S280,338.42,271.94,340.15Z" style="fill:#263238"></path><path d="M280,331.5l8.65,5.77S288.1,329.76,280,331.5Z" style="fill:#263238"></path><path d="M295.6,321.69l8.65,5.77S303.67,320,295.6,321.69Z" style="fill:#263238"></path><path d="M304.83,313l8.65,5.77S312.91,311.3,304.83,313Z" style="fill:#263238"></path><path d="M262.76,354c-.59-2.77-4.15-4.86-7.36-6.22-2.66.59-6.6,1.42-9.41,1.8-4.62.61-12.63,2.15-11.09,8.32s13.56,5.85,22.8,3.39a30.91,30.91,0,0,0,6.69-2.81A17.76,17.76,0,0,1,262.76,354Z" style="fill:#fff"></path><path d="M299.63,313c4-5.77-1.15,2.31-13.27,9.81s-29.42,2.31-29.42,2.31l-.55.36A39,39,0,0,0,274,332L267,338.77C279.88,334,295.85,318.44,299.63,313Z" style="fill:#fff"></path></g><path d="M281.13,280.2s10.48.31,23.73,7.4,26.5,10.48,26.5,18.18-27.43,23.73-40.68,33.59-23.73,19.42-33,21.89-21.26,2.77-22.8-3.39,6.47-7.71,11.09-8.32,12.33-2.47,12.33-2.47L274,332s-17.88-1.23-26.2-15.72" style="fill:none;stroke:#263238;stroke-miterlimit:10;stroke-width:1.5px"></path><path d="M274,332s25.27-4.93,28.35-26.2" style="fill:none;stroke:#263238;stroke-linecap:round;stroke-miterlimit:10;stroke-width:1.5px"></path><path d="M234.9,357.87s2.46-4.63,6.16-5.24" style="fill:none;stroke:#263238;stroke-linecap:round;stroke-miterlimit:10;stroke-width:1.5px"></path><path d="M238.9,361.26s1.85-6.78,7.4-6.78" style="fill:none;stroke:#263238;stroke-linecap:round;stroke-miterlimit:10;stroke-width:1.5px"></path><path d="M276,238.6s17.31,1.74,30,14.43,15,36.35,15,30-3.46-23.65-11-32.89S281.17,235.72,276,238.6Z" style="fill:#263238"></path><path d="M262.49,245.28s13.93,1.39,24.14,11.6S298.7,286.13,298.7,281s-2.79-19-8.82-26.46S266.67,243,262.49,245.28Z" style="fill:#263238"></path><path d="M286.94,228.8s17.31,1.73,30,14.42,15,36.35,15,30-3.46-23.65-11-32.88S292.13,225.91,286.94,228.8Z" style="fill:#263238"></path><path d="M301.37,212.06s17.3,1.73,30,14.43,15,36.35,15,30-3.46-23.66-11-32.89S306.56,209.18,301.37,212.06Z" style="fill:#263238"></path></g><g id="freepik--Ball--inject-99"><ellipse cx="134.92" cy="369.33" rx="12" ry="5.6" style="fill:#263238"></ellipse><circle cx="130.73" cy="356.63" r="16.33" style="fill:#FF725E;stroke:#263238;stroke-miterlimit:10;stroke-width:1.5px"></circle><path d="M130.08,349.22a4.39,4.39,0,1,1-4.39-4.56A4.47,4.47,0,0,1,130.08,349.22Z" style="fill:#fff"></path></g></svg>